<svg xmlns="http://www.w3.org/2000/svg" xmlns:xlink="http://www.w3.org/1999/xlink" width="95%" height="100px" viewBox="-0.390173 -0.106923 1000 100" preserveAspectRatio="xMidYMid meet" style="     width: 100%;     zoom: 88%;     transform: translate(18px,16px); " class=" drawsvg-initialized  drawsvg-initialized  drawsvg-initialized " ><rect id="svgEditorBackground" x="-0.3901730179786682" y="-0.10692299902439117" width="1000" height="100" style="fill:none;stroke:none;"/>
<path d="M9.062184884750572,-131.52312145116102a27.1627476554554,27.1627476554554,0,1,1,0.768076933874454,3.8403846693724972Z" style="fill: rgb(59, 170, 52); stroke: rgb(59, 170, 52); stroke-width: 1px; stroke-dasharray: 170.686, 170.686; stroke-dashoffset: 0;" id="e1_path" transform="matrix(0.773383 0 0 0.773383 31.4237 154.049)"/><path d="M-437.96100421273604,-965.8097606171232a27.1627476554554,27.1627476554554,0,1,1,0.7680769338745108,3.8403846693724972Z" style="fill: rgb(59, 170, 52); stroke: rgb(229, 240, 228); stroke-width: 1px; stroke-dasharray: 170.686, 170.686; stroke-dashoffset: 0;" id="e3_path" transform="matrix(0.359965 0 0 0.359965 207.076 398.735)"/><path d="M72.04449346245826,-132.29119838503536h29.186923487230445" style="fill: none; stroke: rgb(59, 170, 52); stroke-width: 2px; stroke-dasharray: 29.1869, 29.1869; stroke-dashoffset: 0;" id="e2_path" transform="matrix(0.773383 0 0 0.773383 31.4237 154.049)"/><path d="M118.12910949492749,-132.29119838503559h29.186923487231326" style="fill: none; stroke: rgb(59, 170, 52); stroke-width: 2px; stroke-dasharray: 29.1869, 29.1869; stroke-dashoffset: 0;" id="e4_path" transform="matrix(0.773383 0 0 0.773383 31.4237 154.049)"/><path d="M161.14141779189973,-132.2911983850358h29.186923487231923" style="fill: none; stroke: rgb(59, 170, 52); stroke-width: 2px; stroke-dasharray: 29.1869, 29.1869; stroke-dashoffset: 0;" id="e5_path" transform="matrix(0.773383 0 0 0.773383 31.4237 154.049)"/><path d="M205.68987995662152,-132.29119838503604h29.18692348723141" style="fill: none; stroke: rgb(59, 170, 52); stroke-width: 2px; stroke-dasharray: 29.1869, 29.1869; stroke-dashoffset: 0;" id="e6_path" transform="matrix(0.773383 0 0 0.773383 31.4237 154.049)"/><path d="M250.23834212134292,-132.29119838503627h29.186923487231553" style="fill: none; stroke: rgb(59, 170, 52); stroke-width: 2px; stroke-dasharray: 29.1869, 29.1869; stroke-dashoffset: 0;" id="e7_path" transform="matrix(0.773383 0 0 0.773383 31.4237 154.049)"/><path d="M293.25065041831533,-133.82735225278552h29.186923487231525" style="fill: none; stroke: rgb(59, 170, 52); stroke-width: 2px; stroke-dasharray: 29.1869, 29.1869; stroke-dashoffset: 0;" id="e8_path" transform="matrix(0.773383 0 0 0.773383 31.4237 154.049)"/><path d="M337.7991125830365,-133.82735225278574h29.18692348723164" style="fill: none; stroke: rgb(59, 170, 52); stroke-width: 2px; stroke-dasharray: 29.1869, 29.1869; stroke-dashoffset: 0;" id="e9_path" transform="matrix(0.773383 0 0 0.773383 31.4237 154.049)"/><path d="M382.34757474775824,-133.82735225278597h29.186923487231752" style="fill: none; stroke: rgb(59, 170, 52); stroke-width: 2px; stroke-dasharray: 29.1869, 29.1869; stroke-dashoffset: 0;" id="e10_path" transform="matrix(0.773383 0 0 0.773383 31.4237 154.049)"/><path d="M426.89603691247976,-133.8273522527862h29.18692348723181" style="fill: none; stroke: rgb(59, 170, 52); stroke-width: 2px; stroke-dasharray: 29.1869, 29.1869; stroke-dashoffset: 0;" id="e11_path" transform="matrix(0.773383 0 0 0.773383 31.4237 154.049)"/><path d="M471.44449907720184,-133.82735225278643h29.186923487232264" style="fill: none; stroke: rgb(59, 170, 52); stroke-width: 2px; stroke-dasharray: 29.1869, 29.1869; stroke-dashoffset: 0;" id="e12_path" transform="matrix(0.773383 0 0 0.773383 31.4237 154.049)"/><path d="M514.4568073741751,-133.82735225278665h29.186923487231525" style="fill: none; stroke: rgb(59, 170, 52); stroke-width: 2px; stroke-dasharray: 29.187, 29.187; stroke-dashoffset: 0;" id="e13_path" transform="matrix(0.773383 0 0 0.773383 31.4237 154.049)"/><path d="M562.0775772743826,-132.29119838503547a27.1627476554554,27.1627476554554,0,1,1,0.768076933874454,3.8403846693725257Z" style="fill: rgb(59, 170, 52); stroke: rgb(59, 170, 52); stroke-width: 1px; stroke-dasharray: 170.686, 170.686; stroke-dashoffset: 0;" id="e14_path" transform="matrix(0.773383 0 0 0.773383 31.4237 154.049)"/><path d="M749.6197431539887,-966.3800400757768a27.1627476554554,27.1627476554554,0,1,1,0.768076933874454,3.8403846693724972Z" style="fill: rgb(59, 170, 52); stroke: rgb(229, 240, 228); stroke-width: 1px; stroke-dasharray: 170.686, 170.686; stroke-dashoffset: 0;" id="e15_path" transform="matrix(0.359965 0 0 0.359965 207.076 398.735)"/><path d="M629.131159399736,-135.3635061205359h29.18692348722982" style="fill: none; stroke: rgb(59, 170, 52); stroke-width: 2px; stroke-dasharray: 29.187, 29.187; stroke-dashoffset: 0;" id="e16_path" transform="matrix(0.773383 0 0 0.773383 31.4237 154.049)"/><path d="M673.6796215644551,-135.36350612053613h29.18692348722948" style="fill: none; stroke: rgb(59, 170, 52); stroke-width: 2px; stroke-dasharray: 29.187, 29.187; stroke-dashoffset: 0;" id="e17_path" transform="matrix(0.773383 0 0 0.773383 31.4237 154.049)"/><path d="M718.2280837291737,-135.36350612053639h29.18692348722948" style="fill: none; stroke: rgb(59, 170, 52); stroke-width: 2px; stroke-dasharray: 29.187, 29.187; stroke-dashoffset: 0;" id="e18_path" transform="matrix(0.773383 0 0 0.773383 31.4237 154.049)"/><path d="M762.7765458938924,-135.36350612053658h29.186923487229706" style="fill: none; stroke: rgb(59, 170, 52); stroke-width: 2px; stroke-dasharray: 29.187, 29.187; stroke-dashoffset: 0;" id="e19_path" transform="matrix(0.773383 0 0 0.773383 31.4237 154.049)"/><path d="M805.788854190862,-135.3635061205368h29.18692348722948" style="fill: none; stroke: rgb(59, 170, 52); stroke-width: 2px; stroke-dasharray: 29.187, 29.187; stroke-dashoffset: 0;" id="e20_path" transform="matrix(0.773383 0 0 0.773383 31.4237 154.049)"/><path d="M850.3373163555806,-135.36350612053704h29.18692348722925" style="fill: none; stroke: rgb(59, 170, 52); stroke-width: 2px; stroke-dasharray: 29.187, 29.187; stroke-dashoffset: 0;" id="e21_path" transform="matrix(0.773383 0 0 0.773383 31.4237 154.049)"/><path d="M894.8857785202988,-136.8996599882863h29.18692348722925" style="fill: none; stroke: rgb(59, 170, 52); stroke-width: 2px; stroke-dasharray: 29.187, 29.187; stroke-dashoffset: 0;" id="e22_path" transform="matrix(0.773383 0 0 0.773383 31.4237 154.049)"/><path d="M939.434240685017,-136.89965998828654h29.18692348722948" style="fill: none; stroke: rgb(59, 170, 52); stroke-width: 2px; stroke-dasharray: 29.187, 29.187; stroke-dashoffset: 0;" id="e23_path" transform="matrix(0.773383 0 0 0.773383 31.4237 154.049)"/><path d="M982.4465489819866,-136.89965998828674h29.18692348722948" style="fill: none; stroke: rgb(59, 170, 52); stroke-width: 2px; stroke-dasharray: 29.187, 29.187; stroke-dashoffset: 0;" id="e24_path" transform="matrix(0.773383 0 0 0.773383 31.4237 154.049)"/><path d="M1026.995011146705,-136.89965998828697h29.18692348722948" style="fill: none; stroke: rgb(59, 170, 52); stroke-width: 2px; stroke-dasharray: 29.1869, 29.1869; stroke-dashoffset: 0;" id="e25_path" transform="matrix(0.773383 0 0 0.773383 31.4237 154.049)"/><path d="M1072.9963800281614,-136.8996599882872h29.18692348722948" style="fill: none; stroke: rgb(59, 170, 52); stroke-width: 2px; stroke-dasharray: 29.1869, 29.1869; stroke-dashoffset: 0;" id="e26_path" transform="matrix(0.773383 0 0 0.773383 31.4237 154.049)"/><path d="M1114.888770212444,-134.42893488463633a27.1627476554554,27.1627476554554,0,1,1,0.768076933874454,3.8403846693724972Z" style="fill: rgb(59, 170, 52); stroke: rgb(59, 170, 52); stroke-width: 1px; stroke-dasharray: 170.687, 170.687; stroke-dashoffset: 0;" id="e27_path" transform="matrix(0.773383 0 0 0.773383 31.4237 154.049)"/><path d="M1938.5908514020166,-973.0145872827986a27.1627476554554,27.1627476554554,0,1,1,0.7680769338749087,3.8403846693724972Z" style="fill: rgb(59, 170, 52); stroke: rgb(229, 240, 228); stroke-width: 1px; stroke-dasharray: 170.687, 170.687; stroke-dashoffset: 0;" id="e28_path" transform="matrix(0.359965 0 0 0.359965 207.076 398.735)"/></svg>