<svg xmlns="http://www.w3.org/2000/svg" xmlns:xlink="http://www.w3.org/1999/xlink" width="1997px" height="1496px" viewBox="0 -0.106923 1997 1496.21" preserveAspectRatio="xMidYMid meet" style="&#10;    width: 100%;&#10;"><rect id="svgEditorBackground" x="0" y="0" width="1997" height="1496" style="fill: none; stroke: none;"/><defs id="svgEditorDefs"><path id="svgEditorClosePathDefs" style="stroke:black;stroke-width:1px;fill:khaki;"/></defs><path d="M407.0807679350617,599.3771132952867a27.1627476554554,27.1627476554554,0,1,1,0.7680769338745108,3.8403846693724972Z" style="fill:#3baa34;stroke:#3baa34;stroke-width:1px;" id="e1_path"/><path d="M417.1798234609426,604.5255410613827a27.1627476554554,27.1627476554554,0,1,1,0.7680769338745108,3.8403846693724972Z" style="fill:#3baa34;stroke:#e5f0e4;stroke-width:1px;" id="e3_path" transform="matrix(0.465442 0 0 0.465442 227.122 316.384)"/><path d="M470.0630765127695,598.6090363614123h29.1869234872305" style="fill:none;stroke:#3baa34;stroke-width:2px;" id="e2_path"/><path d="M516.1476925452387,598.6090363614121h29.186923487231525" style="fill:none;stroke:#3baa34;stroke-width:2px;" id="e4_path"/><path d="M559.160000842211,598.6090363614119h29.186923487231525" style="fill:none;stroke:#3baa34;stroke-width:2px;" id="e5_path"/><path d="M603.7084630069324,598.6090363614117h29.186923487231525" style="fill:none;stroke:#3baa34;stroke-width:2px;" id="e6_path"/><path d="M648.2569251716538,598.6090363614114h29.186923487231525" style="fill:none;stroke:#3baa34;stroke-width:2px;" id="e7_path"/><path d="M691.2692334686262,597.0728824936622h29.186923487231525" style="fill:none;stroke:#3baa34;stroke-width:2px;" id="e8_path"/><path d="M735.8176956333476,597.072882493662h29.186923487231525" style="fill:none;stroke:#3baa34;stroke-width:2px;" id="e9_path"/><path d="M780.366157798069,597.0728824936617h29.186923487231525" style="fill:none;stroke:#3baa34;stroke-width:2px;" id="e10_path"/><path d="M824.9146199627904,597.0728824936615h29.186923487231525" style="fill:none;stroke:#3baa34;stroke-width:2px;" id="e11_path"/><path d="M869.4630821275118,597.0728824936613h29.186923487231525" style="fill:none;stroke:#3baa34;stroke-width:2px;" id="e12_path"/><path d="M912.4753904244842,597.072882493661h29.186923487231525" style="fill:none;stroke:#3baa34;stroke-width:2px;" id="e13_path"/><path d="M960.0961603246917,598.6090363614122a27.1627476554554,27.1627476554554,0,1,1,0.7680769338745677,3.8403846693724972Z" style="fill:#3baa34;stroke:#3baa34;stroke-width:1px;" id="e14_path"/><path d="M1604.7605708276674,603.955261602729a27.1627476554554,27.1627476554554,0,1,1,0.768076933874454,3.8403846693724972Z" style="fill:#3baa34;stroke:#e5f0e4;stroke-width:1px;" id="e15_path" transform="matrix(0.465442 0 0 0.465442 227.122 316.384)"/><path d="M1044.5846230508982,595.5367286259118h29.18692348722948" style="fill:none;stroke:#3baa34;stroke-width:2px;" id="e16_path"/><path d="M1089.1330852156168,595.5367286259116h29.18692348722948" style="fill:none;stroke:#3baa34;stroke-width:2px;" id="e17_path"/><path d="M1133.6815473803354,595.5367286259113h29.18692348722948" style="fill:none;stroke:#3baa34;stroke-width:2px;" id="e18_path"/><path d="M1178.230009545054,595.5367286259111h29.18692348722948" style="fill:none;stroke:#3baa34;stroke-width:2px;" id="e19_path"/><path d="M1221.2423178420236,595.5367286259109h29.18692348722948" style="fill:none;stroke:#3baa34;stroke-width:2px;" id="e20_path"/><path d="M1265.7907800067421,595.5367286259107h29.18692348722948" style="fill:none;stroke:#3baa34;stroke-width:2px;" id="e21_path"/><path d="M1310.3392421714607,594.0005747581614h29.18692348722948" style="fill:none;stroke:#3baa34;stroke-width:2px;" id="e22_path"/><path d="M1354.8877043361792,594.0005747581612h29.18692348722948" style="fill:none;stroke:#3baa34;stroke-width:2px;" id="e23_path"/><path d="M1397.900012633149,594.000574758161h29.18692348722948" style="fill:none;stroke:#3baa34;stroke-width:2px;" id="e24_path"/><path d="M1442.4484747978674,594.0005747581607h29.18692348722948" style="fill:none;stroke:#3baa34;stroke-width:2px;" id="e25_path"/><path d="M1486.996936962586,594.0005747581605h29.18692348722948" style="fill:none;stroke:#3baa34;stroke-width:2px;" id="e26_path"/><path d="M1536.1538607305572,599.3771132952868a27.1627476554554,27.1627476554554,0,1,1,0.768076933874454,3.8403846693724972Z" style="fill:#3baa34;stroke:#3baa34;stroke-width:1px;" id="e27_path"/><path d="M2846.798240257222,606.6854016630352a27.1627476554554,27.1627476554554,0,1,1,0.7680769338749087,3.8403846693724972Z" style="fill:#3baa34;stroke:#e5f0e4;stroke-width:1px;" id="e28_path" transform="matrix(0.465442 0 0 0.465442 227.122 316.384)"/></svg>